<svg width="168" height="144" viewBox="0 0 168 144" fill="none" xmlns="http://www.w3.org/2000/svg">
<g clip-path="url(#clip0_7129_35189)">
<g clip-path="url(#clip1_7129_35189)">
<path d="M-0.375 57.6377H168.137V85.7207H-0.375V57.6377Z" fill="#004C8F"/>
<path d="M27.7129 57.6377H168.138V85.7207H27.7129V57.6377Z" fill="#004C8F"/>
<path d="M36.6426 78.3242V65.0366H41.0141V69.5211H45.1102V65.0366H49.4888V78.3242H45.1102V73.1688H41.0141V78.3242H36.6426Z" fill="white"/>
<path d="M56.4051 68.3382H57.5386C58.3543 68.3382 58.9511 68.4229 59.3324 68.5924C59.6149 68.716 59.8444 68.8997 60.0457 69.1751C60.2293 69.447 60.3776 69.7896 60.4871 70.2204C60.5859 70.6476 60.6389 71.0995 60.6389 71.5762C60.6389 72.3531 60.533 73.0028 60.3035 73.529C60.081 74.0551 59.7597 74.4329 59.3465 74.6659C58.9334 74.9025 58.319 75.0155 57.5068 75.0155L56.4051 75.0226V68.3382ZM58.0929 78.3242C59.124 78.3242 59.9787 78.2395 60.6778 78.0523C61.3805 77.8723 61.9525 77.6321 62.3904 77.3461C62.8353 77.053 63.2378 76.6576 63.6086 76.1667C63.9758 75.6583 64.2971 75.0191 64.5478 74.2352C64.8056 73.4548 64.9292 72.5755 64.9292 71.5798C64.9292 70.1179 64.6503 68.882 64.0853 67.8509C63.5133 66.841 62.7365 66.1101 61.7442 65.6793C60.7555 65.2485 59.5761 65.0366 58.206 65.0366H52.1289V78.3242H58.0929Z" fill="white"/>
<path d="M66.9336 78.3242V65.0366H77.301V68.3135H71.2486V70.4428H76.0897V73.6313H71.2486V78.3242H66.9336Z" fill="white"/>
<path d="M91.9402 70.1167H87.8123C87.7346 69.4563 87.4945 68.9338 87.0955 68.5595C86.693 68.1923 86.188 68.0122 85.5665 68.0122C84.7932 68.0122 84.1646 68.3123 83.6809 68.9055C83.1936 69.5058 82.9499 70.4769 82.9499 71.8116C82.9499 72.7439 83.0594 73.443 83.2607 73.9197C83.469 74.4105 83.7621 74.7636 84.1258 75.0002C84.5001 75.2368 84.9557 75.3463 85.5171 75.3463C86.188 75.3463 86.7248 75.1767 87.1167 74.7883C87.5193 74.4246 87.7523 73.8809 87.83 73.1535H92.032C91.9402 73.9798 91.7742 74.6718 91.5341 75.2368C91.3046 75.7983 90.895 76.3561 90.3406 76.9176C89.7792 77.4861 89.1083 77.924 88.335 78.2276C87.5617 78.5348 86.6682 78.6797 85.6442 78.6797C84.6343 78.6797 83.6915 78.5349 82.8406 78.2383C81.979 77.9346 81.2515 77.5037 80.6724 76.9635C80.0827 76.402 79.6237 75.7735 79.2953 75.0638C78.8221 74.0645 78.5996 72.9664 78.5996 71.7411C78.5996 70.717 78.7656 69.7459 79.101 68.8561C79.4365 67.9733 79.8991 67.2211 80.4888 66.6138C81.082 66.01 81.7282 65.558 82.4485 65.2544C83.3595 64.8659 84.3625 64.6788 85.4748 64.6788C86.4423 64.6788 87.3391 64.82 88.1866 65.106C89.0305 65.392 89.7227 65.8087 90.2629 66.3631C90.8102 66.9175 91.2304 67.5531 91.5235 68.277C91.7354 68.7819 91.8696 69.3928 91.9402 70.1167Z" fill="white"/>
<path d="M105.94 68.0275C106.558 68.0275 106.957 68.0557 107.155 68.1122C107.409 68.1864 107.621 68.3312 107.773 68.5218C107.928 68.7196 108.01 68.9491 108.01 69.214C108.01 69.553 107.875 69.8319 107.618 70.0437C107.342 70.2662 106.872 70.3686 106.198 70.3686H104.553V68.0275H105.94ZM107.038 78.3242C108.073 78.3242 108.8 78.2748 109.228 78.1829C109.648 78.0841 110.082 77.9288 110.524 77.724C110.954 77.498 111.286 77.2861 111.505 77.0531C111.844 76.7388 112.095 76.3573 112.279 75.8983C112.462 75.4357 112.554 74.9132 112.554 74.3517C112.554 73.5501 112.356 72.8898 111.954 72.3531C111.551 71.8128 111.011 71.4562 110.329 71.262C111.484 70.5346 112.06 69.5953 112.06 68.4512C112.06 67.2683 111.551 66.3643 110.545 65.7499C109.768 65.2767 108.557 65.0366 106.915 65.0366H100.322V78.3242H107.038ZM106.336 72.7592C107.201 72.7592 107.762 72.8651 108.045 73.0876C108.306 73.303 108.447 73.5996 108.447 73.9986C108.447 74.4011 108.306 74.7189 108.02 74.9414C107.748 75.178 107.18 75.2768 106.336 75.2768H104.553V72.7592H106.336Z" fill="white"/>
<path d="M122.154 73.8574H119.375L120.745 69.0232L122.154 73.8574ZM118.068 78.3242L118.573 76.5799H122.924L123.432 78.3242H127.779L123.012 65.0366H118.573L113.803 78.3242H118.068Z" fill="white"/>
<path d="M129.613 78.3242V65.0366H133.685L138.279 72.1519V65.0366H142.467V78.3242H138.307L133.812 71.3856V78.3242H129.613Z" fill="white"/>
<path d="M145.383 78.3242V65.0366H149.617V69.4187L153.568 65.0366H158.702L153.833 70.0402L159.207 78.3242H153.974L150.778 73.0311L149.617 74.1786V78.3242H145.383Z" fill="white"/>
<path d="M-0.375 57.6377H27.708V85.7207H-0.375V57.6377Z" fill="#ED232A"/>
<path d="M4.54297 62.5527H22.7989V80.8086H4.54297V62.5527Z" fill="white"/>
<path d="M12.2617 57.6377H15.0689V85.7207H12.2617V57.6377Z" fill="white"/>
<path d="M-0.375 70.2807H27.708V73.0879H-0.375V70.2807Z" fill="white"/>
<path d="M9.45508 67.4653H17.8803V75.8906H9.45508V67.4653Z" fill="#004C8F"/>
</g>
</g>
<defs>
<clipPath id="clip0_7129_35189">
<rect width="168" height="144" fill="white"/>
</clipPath>
<clipPath id="clip1_7129_35189">
<rect width="169.602" height="29.343" fill="white" transform="translate(-1 57)"/>
</clipPath>
</defs>
</svg>
