<svg width="168" height="144" viewBox="0 0 168 144" fill="none" xmlns="http://www.w3.org/2000/svg">
<g clip-path="url(#clip0_7129_35436)">
<path d="M107.464 63.1438C109.519 62.9048 111.729 63.3947 113.277 64.8267C115.003 66.3338 115.827 68.6295 115.992 70.8671C116.179 72.7241 116.054 74.6323 115.515 76.4262C114.905 78.401 113.579 80.2511 111.655 81.1114C109.945 81.8453 107.979 81.8999 106.19 81.4357C104.284 80.939 102.739 79.4745 101.915 77.7131C100.833 75.4431 100.703 72.8351 100.998 70.3721C101.232 68.242 102.12 66.1171 103.743 64.6748C104.769 63.7685 106.108 63.2667 107.464 63.1438ZM107.58 66.3116C105.878 66.641 104.704 68.2301 104.391 69.8652C104.021 71.7427 104.009 73.7448 104.593 75.5813C105.083 77.0406 106.322 78.3463 107.894 78.5631C109.483 78.8584 111.121 77.9589 111.893 76.5713C112.724 75.0573 112.833 73.272 112.772 71.5805C112.659 70.1212 112.403 68.5373 111.345 67.4415C110.427 66.397 108.916 65.9959 107.58 66.3116Z" fill="#1B69B2"/>
<path d="M0.130859 63.1284C6.44776 63.1284 12.763 63.1352 19.0782 63.125C19.0611 64.9854 19.1174 66.8476 19.0491 68.7046C17.2263 68.6653 15.4 68.696 13.5754 68.6892C13.5788 73.0364 13.5686 77.3837 13.5805 81.7326C10.9418 81.7412 8.30477 81.7275 5.66604 81.7395C5.64898 77.3888 5.66604 73.0381 5.65751 68.6875C3.81586 68.6875 1.97421 68.6858 0.134273 68.6875C0.130859 66.8339 0.134273 64.982 0.130859 63.1284Z" fill="#1B69B2"/>
<path d="M24.4552 63.1289C27.1946 63.1306 29.9341 63.1323 32.6735 63.1289C35.2183 69.3349 37.7769 75.5357 40.3063 81.7485C37.7564 81.7212 35.2047 81.7365 32.653 81.74C31.2961 78.0959 29.975 74.4382 28.6215 70.7925C27.2424 74.416 25.9794 78.0857 24.6532 81.7314C22.1288 81.7434 19.6044 81.728 17.0801 81.7383C19.5123 75.5255 22.0042 69.3349 24.4552 63.1289Z" fill="#1B69B2"/>
<path d="M38.5194 68.7011C38.458 66.8441 38.5092 64.9837 38.4938 63.125C44.7988 63.1369 51.102 63.1267 57.4053 63.1301C57.4036 64.982 57.4053 66.8339 57.4036 68.6858C55.6097 68.6875 53.8175 68.6875 52.0237 68.6858C52.0152 73.0364 52.0186 77.3871 52.022 81.7378C49.3884 81.7326 46.7565 81.7326 44.1229 81.7378C44.1229 77.3854 44.1382 73.033 44.1143 68.6824C42.2488 68.7029 40.3832 68.6653 38.5194 68.7011Z" fill="#1B69B2"/>
<path d="M55.4121 81.727C57.8989 75.5364 60.3397 69.327 62.8128 63.133C65.5506 63.1296 68.2866 63.1313 71.0226 63.1313C73.5845 69.327 76.1106 75.5364 78.6657 81.7338C76.1055 81.727 73.5435 81.7577 70.985 81.7201C69.6657 78.0727 68.3105 74.4406 66.9826 70.7966C66.9109 70.9246 66.8477 71.0577 66.7948 71.1943C65.5301 74.7086 64.2705 78.2246 62.9972 81.7355C60.4677 81.7304 57.9399 81.7492 55.4121 81.727Z" fill="#1B69B2"/>
<path d="M86.9043 63.3671C89.6335 63.3808 92.3678 63.2971 95.0902 63.531C96.6451 63.6863 97.9149 64.8964 98.4696 66.3079C99.009 67.7348 99.038 69.3222 98.7154 70.802C98.3348 72.3739 97.2151 73.8879 95.5937 74.3078C93.7913 74.7498 91.9206 74.6082 90.0841 74.6338C90.0841 76.9072 90.0807 79.1807 90.0858 81.4542C89.0242 81.4644 87.9642 81.4576 86.9043 81.4593C86.9043 75.4291 86.9043 69.3973 86.9043 63.3671ZM90.0841 66.4701C90.0807 68.1667 90.0841 69.8632 90.0841 71.5581C91.2208 71.5598 92.361 71.5769 93.4943 71.483C94.1855 71.4318 94.8427 71.0733 95.2233 70.4879C95.6585 69.8683 95.6602 69.0713 95.5681 68.3493C95.3974 67.472 94.6754 66.6527 93.752 66.5691C92.5368 66.395 91.3062 66.4957 90.0841 66.4701Z" fill="#1B69B2"/>
<path d="M116.992 63.3657C118.073 63.3657 119.153 63.3657 120.233 63.3657C121.036 67.4535 121.739 71.5652 122.596 75.6393C123.55 71.5498 124.487 67.4552 125.444 63.3657C126.701 63.3657 127.957 63.3657 129.213 63.3657C130.111 67.532 131.032 71.6932 131.934 75.8595C132.806 71.7103 133.543 67.5286 134.357 63.3674C135.421 63.3657 136.486 63.3622 137.549 63.3708C136.283 69.4026 135.021 75.4362 133.722 81.4595C132.613 81.4595 131.505 81.4493 130.396 81.4664C129.303 76.9928 128.324 72.4903 127.242 68.0133C126.216 72.4954 125.192 76.9792 124.147 81.4578C123.004 81.4578 121.86 81.4578 120.718 81.4578C119.498 75.4226 118.199 69.4026 116.992 63.3657Z" fill="#1B69B2"/>
<path d="M139.131 63.3657C143.021 63.3657 146.91 63.364 150.802 63.3674C150.802 64.4017 150.802 65.4343 150.802 66.4686C147.974 66.4652 145.146 66.4721 142.317 66.4652C142.3 67.7846 142.311 69.1057 142.312 70.425C144.948 70.4284 147.583 70.4319 150.218 70.4233C150.232 71.4372 150.223 72.451 150.223 73.4649C147.586 73.4666 144.949 73.4649 142.312 73.4666C142.307 75.0966 142.307 76.7266 142.312 78.3566C145.234 78.3549 148.156 78.3549 151.077 78.3566C151.079 79.3892 151.079 80.4235 151.079 81.4578C147.095 81.4578 143.113 81.4578 139.131 81.4578C139.131 75.4277 139.131 69.3958 139.131 63.3657Z" fill="#1B69B2"/>
<path d="M153.744 63.3674C155.925 63.364 158.107 63.3657 160.288 63.3657C161.662 63.492 163.14 63.3537 164.39 64.0467C165.748 64.8489 166.487 66.4516 166.537 67.9911C166.631 69.4436 166.335 71.0326 165.267 72.0943C164.538 72.8777 163.509 73.2652 162.486 73.4853C164.325 74.663 165.25 76.7095 166.274 78.5477C166.803 79.5172 167.317 80.4952 167.856 81.4595C166.593 81.4561 165.328 81.4595 164.065 81.4578C162.719 79.2697 161.553 76.9655 160.076 74.861C159.37 73.8318 158.018 73.8847 156.912 73.8847C156.91 76.4091 156.914 78.9318 156.91 81.4561C155.855 81.4578 154.799 81.4578 153.744 81.4561C153.744 75.426 153.744 69.3975 153.744 63.3674ZM156.912 66.4686C156.91 67.9843 156.91 69.4999 156.912 71.0156C158.554 70.9763 160.215 71.1248 161.845 70.8637C163.097 70.6077 163.524 69.0647 163.202 67.9672C163.045 67.1019 162.193 66.5096 161.341 66.5045C159.865 66.4294 158.388 66.4857 156.912 66.4686Z" fill="#1B69B2"/>
</g>
<defs>
<clipPath id="clip0_7129_35436">
<rect width="168" height="144" fill="white"/>
</clipPath>
</defs>
</svg>
