<svg width="168" height="144" viewBox="0 0 168 144" fill="none" xmlns="http://www.w3.org/2000/svg">
<g clip-path="url(#clip0_7129_35332)">
<path d="M56.4609 69.3519V54.2383H69.8258C72.5803 54.2383 77.0148 54.6108 77.0148 58.2034C77.0148 59.969 75.4652 61.215 73.6642 61.6657C75.9085 62.3399 77.0148 63.5803 77.0148 65.2769C77.0148 68.9813 72.8057 69.3352 69.8258 69.3463H56.4609V69.3519ZM61.3685 62.9843L62.7709 60.6674C63.1322 60.1422 63.7263 59.8293 64.3614 59.8256H69.8239C70.7998 59.8256 71.5951 59.3786 71.5951 58.6225C71.5951 57.8644 70.8073 57.41 69.8239 57.41H61.3666V62.9843H61.3685ZM61.3685 62.9843V69.3445L62.7709 67.0239C63.1322 66.5005 63.7263 66.1858 64.3614 66.1821H69.7513C70.7719 66.1988 71.5802 65.4743 71.5802 64.5916C71.5802 63.7069 70.7886 62.9954 69.7513 62.9954L61.3685 62.9843ZM88.8785 57.8868L82.2538 69.3631H76.484L85.7216 54.2383H92.0353L101.264 69.3519H95.4994L93.9499 66.6589H85.3976L86.8168 64.342C87.1799 63.8205 87.7722 63.5076 88.4073 63.5002H92.1117L88.8785 57.8868ZM129.003 57.8868L122.384 69.3631H116.601L125.835 54.2383H132.148L141.375 69.3519H135.626L134.074 66.6589H125.524L126.926 64.342C127.286 63.8205 127.878 63.5058 128.511 63.5002H132.221L128.988 57.8887H129.003V57.8868ZM110.203 66.1839C111.326 66.1839 112.22 65.642 112.22 64.5431V54.2383H117.106V64.9957C117.106 68.2568 114.947 69.3501 112.122 69.3501H103.957C103.322 69.3426 102.731 69.0297 102.368 68.5082L100.949 66.1802L110.203 66.1839ZM150.309 66.1839C151.432 66.1839 152.332 65.642 152.332 64.5431V54.2383H157.232V64.9957C157.232 68.2568 155.079 69.3501 152.251 69.3501H144.087C143.452 69.3463 142.857 69.0316 142.498 68.5082L141.079 66.1802L150.309 66.1839Z" fill="#0071BB"/>
<path d="M56.4316 74.3828H68.5299V78.0555H60.622V81.6575H67.7719V85.1346H60.622V89.5058H56.4297V74.3828H56.4316Z" fill="#0071BB"/>
<path d="M71.3828 74.3828H75.5919V89.5076H71.3828V74.3828Z" fill="#0071BB"/>
<path d="M79.2266 74.3828H83.1377L89.3619 82.3764V74.3828H93.5096V89.5076H89.8368L83.3835 81.2124V89.5076H79.2284V74.3828H79.2266Z" fill="#0071BB"/>
<path d="M95.9082 87.2589L98.24 84.4727C99.6163 85.6255 101.35 86.2662 103.146 86.2886C104.269 86.2886 104.874 85.8993 104.874 85.2512V85.2083C104.874 84.5826 104.377 84.2343 102.326 83.7612C99.1041 83.0256 96.6215 82.1204 96.6215 79.0083V78.9655C96.6215 76.1588 98.8471 74.125 102.477 74.125C105.047 74.125 107.057 74.816 108.698 76.1346L106.602 79.094C105.219 78.1199 103.71 77.6003 102.369 77.6003C101.354 77.6003 100.857 78.0324 100.857 78.5744V78.6172C100.857 79.31 101.376 79.6099 103.472 80.0866C106.951 80.8409 109.109 81.9658 109.109 84.7986V84.8414C109.109 87.9275 106.667 89.7657 102.998 89.7657C100.313 89.7639 97.765 88.922 95.9082 87.2589Z" fill="#0071BB"/>
<path d="M112 74.3828H124.164V77.9494H116.149V80.2383H123.409V83.5441H116.149V85.9467H124.273V89.5095H112V74.3828Z" fill="#0071BB"/>
<path d="M127.279 74.3828H134.431C136.742 74.3828 138.342 74.9881 139.355 76.0236C140.242 76.8878 140.696 78.0555 140.696 79.5455V79.5902C140.696 81.9015 139.465 83.4342 137.584 84.2332L141.192 89.5058H136.351L133.304 84.9261H131.47V89.5058H127.277V74.3828H127.279ZM134.222 81.6444C135.651 81.6444 136.467 80.9516 136.467 79.8491V79.8062C136.467 78.6161 135.602 78.0127 134.2 78.0127H131.457V81.6444H134.222Z" fill="#0071BB"/>
<path d="M142.033 74.3828H146.723L150.157 83.9539L153.584 74.3828H158.186L152.049 89.6157H148.172L142.033 74.3828Z" fill="#0071BB"/>
<path d="M41.0642 76.994C41.0642 82.3727 35.0541 82.8867 30.8022 82.9109H26.9786V78.0686H34.5829V74.3735H26.9786V69.3506H35.3968V65.445H22.52V82.9202H17.6013V60.9547H30.8096C34.7375 60.9547 41.0717 61.5153 41.0717 66.7133C41.0717 69.2835 38.8684 71.1739 36.302 71.8239C39.4811 72.8054 41.0642 74.381 41.0642 76.994ZM28.7461 52.2031C17.8471 52.2031 9.01172 61.0385 9.01172 71.9375C9.01172 82.8364 17.8471 91.6718 28.7461 91.6718C39.645 91.6718 48.4804 82.8364 48.4804 71.9375C48.4804 61.0404 39.6488 52.2068 28.7517 52.2031H28.7461Z" fill="#0071BB"/>
</g>
<defs>
<clipPath id="clip0_7129_35332">
<rect width="168" height="144" fill="white"/>
</clipPath>
</defs>
</svg>
