<svg width="168" height="144" viewBox="0 0 168 144" fill="none" xmlns="http://www.w3.org/2000/svg">
<g clip-path="url(#clip0_7129_35233)">
<mask id="mask0_7129_35233" style="mask-type:luminance" maskUnits="userSpaceOnUse" x="-15" y="40" width="64" height="65">
<path d="M19.7442 40.7114L48.6075 75.5055L13.9551 104.25L-14.9082 69.4575" fill="white"/>
</mask>
<g mask="url(#mask0_7129_35233)">
<path d="M17.092 56.1221C8.27663 56.3856 1.19141 63.5972 1.19141 72.4751C1.19141 81.5235 8.52488 88.8555 17.5627 88.8555C20.5585 88.8555 28.6931 87.6005 32.5251 79.1431C30.8817 79.8117 29.086 80.1817 27.2051 80.1817C19.3994 80.1817 13.0925 75.1237 13.0818 67.3211C13.0742 63.3109 14.2866 60.0851 16.1432 57.7061C16.5194 57.2218 17.1392 56.5441 17.5627 56.1115C17.5398 56.113 17.1149 56.1221 17.092 56.1221Z" fill="url(#paint0_linear_7129_35233)"/>
</g>
<mask id="mask1_7129_35233" style="mask-type:luminance" maskUnits="userSpaceOnUse" x="2" y="56" width="32" height="33">
<path d="M2.62109 56.1002H33.9548V88.8594H2.62109V56.1002Z" fill="white"/>
</mask>
<g mask="url(#mask1_7129_35233)">
<path d="M19.0463 57.6987C21.5014 60.9763 22.071 64.1092 22.071 67.3274C22.071 75.1299 15.7474 80.1895 7.94782 80.1895C6.06686 80.1895 4.27575 79.8179 2.63086 79.1508C6.53596 87.8504 14.5898 88.8633 17.5857 88.8633C26.6295 88.8633 33.9645 81.5298 33.9645 72.4829C33.9645 63.602 26.8778 56.3903 18.0593 56.1269C18.0365 56.1269 17.6024 56.1056 17.5765 56.1041C18.0015 56.5366 18.6792 57.2037 19.0463 57.6987Z" fill="url(#paint1_linear_7129_35233)"/>
</g>
<path d="M15.8633 58.0581C14.1453 60.4325 13.0533 63.5304 13.0685 67.2512C13.0837 71.336 14.8276 74.7431 17.5706 76.9941C20.2969 74.7431 22.1017 71.4015 22.0484 67.3243C22.0134 64.2721 21.727 61.4179 19.0952 57.7915C18.6764 57.2128 17.9438 56.4634 17.5615 56.1025C17.5173 56.1025 16.5335 57.129 15.8633 58.0581Z" fill="white"/>
<path d="M43.2583 73.6807V78.3991C43.5705 78.4295 43.904 78.4478 44.262 78.4661C44.6199 78.4783 44.9473 78.4874 45.2474 78.4874C45.8277 78.4874 46.3668 78.4478 46.8664 78.3747C47.3675 78.3001 47.7985 78.1706 48.1625 77.9848C48.528 77.7975 48.8204 77.5477 49.0337 77.237C49.253 76.9217 49.3566 76.5196 49.3566 76.0292C49.3566 75.1504 49.0382 74.5381 48.397 74.1954C47.7574 73.8528 46.8709 73.6807 45.7393 73.6807H43.2583ZM43.2583 71.4692H45.2474C46.3211 71.4692 47.1634 71.3154 47.7711 71.0108C48.3833 70.7016 48.6895 70.1548 48.6895 69.3659C48.6895 68.6241 48.3727 68.0926 47.7391 67.7773C47.1024 67.4651 46.283 67.3113 45.2687 67.3113C44.8362 67.3113 44.4508 67.3189 44.1203 67.3341C43.7822 67.3463 43.4943 67.3691 43.2583 67.3981V71.4692ZM45.159 80.8359C44.3396 80.8359 43.5081 80.8085 42.6765 80.7583C41.8418 80.705 41.1093 80.5968 40.4863 80.4339V65.3892C40.8107 65.3283 41.1626 65.2719 41.5342 65.2186C41.9073 65.1699 42.2881 65.1272 42.6765 65.0968C43.0618 65.0678 43.4487 65.0434 43.8264 65.0297C44.2056 65.0176 44.5681 65.0084 44.9093 65.0084C45.849 65.0084 46.7217 65.0785 47.5274 65.2186C48.3315 65.3618 49.0291 65.5978 49.617 65.9253C50.2064 66.2512 50.6633 66.6838 50.9893 67.2214C51.3213 67.756 51.4812 68.42 51.4812 69.209C51.4812 69.9385 51.3091 70.5675 50.9603 71.09C50.607 71.6093 50.1166 72.0266 49.4936 72.3404C50.4349 72.6526 51.1263 73.1141 51.5711 73.7263C52.0204 74.3371 52.2443 75.1108 52.2443 76.0505C52.2443 77.6467 51.664 78.8423 50.5019 79.6403C49.3383 80.4369 47.5563 80.8359 45.159 80.8359Z" fill="#0A3152"/>
<path d="M57.6936 78.7603C58.5297 78.7603 59.1648 78.7161 59.5943 78.6278V75.6304C59.4481 75.5862 59.2303 75.539 58.9455 75.4964C58.6638 75.4507 58.3515 75.4294 58.0089 75.4294C57.7103 75.4294 57.4088 75.4507 57.1057 75.4964C56.7965 75.539 56.5239 75.6243 56.2741 75.7446C56.0304 75.8589 55.8324 76.0294 55.6832 76.2442C55.5369 76.4605 55.4623 76.7331 55.4623 77.0621C55.4623 77.7033 55.6588 78.145 56.0639 78.3917C56.4691 78.6339 57.0097 78.7603 57.6936 78.7603ZM57.4727 68.6777C58.3652 68.6777 59.1176 68.7904 59.7299 69.0143C60.3406 69.2351 60.8265 69.5504 61.1935 69.9525C61.5606 70.3546 61.818 70.8435 61.9749 71.4177C62.1317 71.9903 62.2109 72.6209 62.2109 73.3062V80.393C61.7921 80.4828 61.1631 80.5895 60.3224 80.7189C59.4771 80.8423 58.5297 80.9062 57.4727 80.9062C56.7706 80.9062 56.1309 80.8408 55.5491 80.7037C54.9688 80.5727 54.4739 80.3564 54.0642 80.0579C53.6514 79.7579 53.3331 79.3741 53.1001 78.8943C52.8686 78.4161 52.7559 77.8297 52.7559 77.126C52.7559 76.4574 52.8838 75.8909 53.1473 75.4294C53.4077 74.9679 53.7595 74.5902 54.2104 74.3008C54.6551 74.0099 55.1729 73.8028 55.7608 73.6733C56.3518 73.5484 56.9656 73.4829 57.6052 73.4829C57.9022 73.4829 58.216 73.5027 58.545 73.5408C58.8724 73.5773 59.2212 73.6398 59.5943 73.7296V73.2834C59.5943 72.9712 59.5563 72.6727 59.4862 72.3878C59.4085 72.1076 59.2791 71.8578 59.0948 71.64C58.9059 71.4238 58.6607 71.2562 58.3561 71.1359C58.05 71.0201 57.6646 70.9577 57.2001 70.9577C56.5757 70.9577 56.0015 71.0049 55.4836 71.0933C54.9597 71.1831 54.5363 71.2852 54.2104 71.4055L53.8723 69.2123C54.2149 69.0965 54.713 68.9762 55.3664 68.8559C56.0258 68.7386 56.728 68.6777 57.4727 68.6777Z" fill="#0A3152"/>
<path d="M64.0645 69.3489C64.5838 69.1996 65.26 69.0595 66.0947 68.924C66.9324 68.7915 67.8538 68.7245 68.8681 68.7245C69.8216 68.7245 70.6166 68.8524 71.2593 69.1144C71.9021 69.3748 72.4092 69.7419 72.793 70.2079C73.1753 70.6816 73.4403 71.2466 73.5942 71.9107C73.7541 72.5732 73.8333 73.2997 73.8333 74.0902V80.6621H71.1268V74.5136C71.1268 73.8891 71.0872 73.353 71.0019 72.9159C70.9197 72.4757 70.7872 72.1178 70.5999 71.8421C70.414 71.5695 70.1643 71.3654 69.8414 71.239C69.5185 71.1126 69.1286 71.0471 68.6656 71.0471C68.3229 71.0471 67.965 71.07 67.5949 71.1156C67.2202 71.1613 66.9445 71.1964 66.7679 71.2268V80.6621H64.0645" fill="#0A3152"/>
<path d="M77.8141 74.775C77.8141 75.9676 78.0958 76.9012 78.6624 77.5789C79.229 78.2582 80.0103 78.5979 81.0094 78.5979C81.442 78.5979 81.8121 78.5796 82.1167 78.5415C82.4243 78.5034 82.6726 78.4638 82.866 78.4166V71.7091C82.6269 71.5477 82.3086 71.3954 81.9141 71.2537C81.5212 71.1136 81.1008 71.039 80.6515 71.039C79.6691 71.039 78.9503 71.3771 78.4933 72.0472C78.0395 72.7189 77.8141 73.6266 77.8141 74.775ZM85.5709 80.2945C85.0318 80.4621 84.3601 80.6083 83.5499 80.7423C82.735 80.8779 81.8821 80.9434 80.9881 80.9434C80.0636 80.9434 79.2381 80.8032 78.507 80.52C77.7745 80.2382 77.1546 79.83 76.6398 79.3015C76.1265 78.7745 75.7305 78.1333 75.4564 77.3794C75.1792 76.627 75.0391 75.7802 75.0391 74.842C75.0391 73.9175 75.1548 73.0783 75.3878 72.326C75.6178 71.5751 75.9575 70.9293 76.4037 70.3932C76.85 69.8571 77.3952 69.4428 78.0379 69.1504C78.6776 68.861 79.4163 68.7163 80.2525 68.7163C80.8175 68.7163 81.314 68.7849 81.745 68.9158C82.1822 69.0514 82.5538 69.1991 82.866 69.3636V63.7527L85.5709 63.3065" fill="#0A3152"/>
<path d="M87.5664 80.6621V63.7608L90.2729 63.3131V69.1052C90.5699 68.9986 90.9186 68.9087 91.3131 68.8356C91.7091 68.7625 92.096 68.7229 92.4859 68.7229C93.4241 68.7229 94.2054 68.8524 94.8237 69.1128C95.4406 69.3748 95.9386 69.7403 96.3057 70.2079C96.6803 70.6801 96.9484 71.2436 97.1037 71.897C97.2591 72.5534 97.3398 73.2845 97.3398 74.0902V80.6621H94.6349V74.5136C94.6349 73.8891 94.5892 73.353 94.5115 72.9159C94.4277 72.4757 94.2952 72.1178 94.1049 71.8421C93.9221 71.5695 93.6693 71.3654 93.357 71.239C93.0448 71.1126 92.6564 71.0471 92.1965 71.0471C91.837 71.0471 91.4715 71.0867 91.0999 71.1613C90.7298 71.2344 90.4511 71.3015 90.2729 71.3609V80.6621" fill="#0A3152"/>
<path d="M103.243 78.7505C104.074 78.7505 104.708 78.7063 105.14 78.618V75.6206C104.993 75.5765 104.775 75.5293 104.488 75.4866C104.21 75.4409 103.898 75.4196 103.555 75.4196C103.256 75.4196 102.955 75.4409 102.649 75.4866C102.343 75.5293 102.067 75.6146 101.822 75.7349C101.576 75.8491 101.38 76.0197 101.228 76.2344C101.078 76.4507 101.007 76.7233 101.007 77.0523C101.007 77.6935 101.206 78.1352 101.607 78.3819C102.014 78.6241 102.554 78.7505 103.243 78.7505ZM103.016 68.6679C103.913 68.6679 104.661 68.7806 105.271 69.0045C105.887 69.2254 106.373 69.5406 106.74 69.9427C107.105 70.3448 107.362 70.8337 107.524 71.4079C107.681 71.9806 107.755 72.6111 107.755 73.2965V80.3832C107.34 80.4731 106.708 80.5797 105.868 80.7091C105.026 80.8325 104.074 80.8965 103.016 80.8965C102.315 80.8965 101.675 80.831 101.094 80.6939C100.515 80.5629 100.017 80.3467 99.6056 80.0481C99.1974 79.7481 98.8745 79.3643 98.6476 78.8845C98.4146 78.4063 98.2988 77.8199 98.2988 77.1163C98.2988 76.4477 98.4298 75.8811 98.6918 75.4196C98.9522 74.9581 99.3056 74.5804 99.7533 74.291C100.203 74.0001 100.719 73.793 101.31 73.6635C101.898 73.5386 102.512 73.4731 103.151 73.4731C103.45 73.4731 103.762 73.4929 104.089 73.531C104.417 73.5676 104.766 73.63 105.14 73.7199V73.2736C105.14 72.9614 105.102 72.6629 105.029 72.3781C104.952 72.0978 104.827 71.8481 104.635 71.6303C104.45 71.414 104.207 71.2465 103.901 71.1261C103.594 71.0104 103.211 70.9479 102.749 70.9479C102.122 70.9479 101.547 70.9951 101.027 71.0835C100.507 71.1733 100.082 71.2754 99.7533 71.3957L99.4183 69.2025C99.7594 69.0868 100.257 68.9664 100.915 68.8461C101.572 68.7289 102.272 68.6679 103.016 68.6679Z" fill="#0A3152"/>
<path d="M109.604 69.3489C110.127 69.1996 110.804 69.0595 111.64 68.924C112.474 68.7915 113.397 68.7245 114.412 68.7245C115.365 68.7245 116.165 68.8524 116.803 69.1144C117.443 69.3748 117.954 69.7419 118.338 70.2079C118.716 70.6816 118.982 71.2466 119.142 71.9107C119.298 72.5732 119.374 73.2997 119.374 74.0902V80.6621H116.669V74.5136C116.669 73.8891 116.629 73.353 116.547 72.9159C116.463 72.4757 116.331 72.1178 116.145 71.8421C115.959 71.5695 115.706 71.3654 115.383 71.239C115.065 71.1126 114.672 71.0471 114.214 71.0471C113.87 71.0471 113.507 71.07 113.139 71.1156C112.765 71.1613 112.49 71.1964 112.31 71.2268V80.6621H109.604" fill="#0A3152"/>
<path d="M126.8 73.2104V79.3346C127.022 79.3681 127.357 79.4016 127.805 79.4366C128.254 79.4731 128.707 79.4945 129.168 79.4945C129.853 79.4945 130.522 79.4457 131.171 79.3589C131.817 79.2675 132.389 79.103 132.88 78.8639C133.375 78.6248 133.768 78.2958 134.063 77.8755C134.359 77.4582 134.511 76.919 134.511 76.261C134.511 75.664 134.407 75.166 134.2 74.7685C133.992 74.374 133.692 74.0572 133.306 73.8272C132.916 73.5957 132.447 73.4343 131.887 73.3459C131.328 73.2561 130.705 73.2104 130.019 73.2104H126.8ZM126.8 71.9143H129.751C130.3 71.9143 130.824 71.8747 131.314 71.7924C131.808 71.7102 132.234 71.5624 132.601 71.3462C132.968 71.1314 133.254 70.842 133.463 70.478C133.67 70.114 133.775 69.6495 133.775 69.086C133.775 68.5818 133.663 68.1554 133.437 67.8036C133.216 67.4578 132.898 67.17 132.488 66.9461C132.08 66.7252 131.591 66.5653 131.023 66.4709C130.458 66.3749 129.832 66.3232 129.147 66.3232C128.597 66.3232 128.128 66.3399 127.749 66.3704C127.368 66.3993 127.05 66.4359 126.8 66.48V71.9143ZM128.99 80.7891C128.739 80.7891 128.446 80.7784 128.107 80.7571C127.77 80.7327 127.429 80.7022 127.081 80.6657C126.727 80.6276 126.395 80.5835 126.084 80.5317C125.775 80.4784 125.502 80.4251 125.281 80.3626V65.452C125.549 65.3789 125.846 65.3149 126.175 65.2631C126.5 65.2098 126.841 65.1687 127.194 65.1276C127.543 65.0925 127.884 65.0666 128.219 65.0499C128.553 65.0347 128.862 65.0286 129.147 65.0286C129.981 65.0286 130.773 65.0956 131.529 65.2281C132.281 65.3621 132.939 65.586 133.509 65.8967C134.072 66.2104 134.523 66.6232 134.863 67.138C135.193 67.6512 135.359 68.2879 135.359 69.0464C135.359 69.8795 135.149 70.5907 134.726 71.1786C134.298 71.762 133.728 72.1717 133.015 72.3971C133.463 72.4991 133.871 72.6484 134.246 72.8433C134.616 73.0352 134.943 73.285 135.228 73.5927C135.512 73.8973 135.732 74.2689 135.888 74.7106C136.045 75.1507 136.119 75.6762 136.119 76.29C136.119 77.7521 135.539 78.8655 134.38 79.6376C133.216 80.4053 131.419 80.7891 128.99 80.7891Z" fill="#0A3152"/>
<path d="M141.46 79.6086C142.029 79.6086 142.526 79.5903 142.948 79.5538C143.373 79.5188 143.734 79.4654 144.032 79.4076V75.3395C143.871 75.2664 143.607 75.1857 143.251 75.105C142.893 75.0227 142.398 74.9831 141.775 74.9831C141.417 74.9831 141.041 75.006 140.656 75.0608C140.269 75.1111 139.911 75.2253 139.583 75.3943C139.257 75.5664 138.988 75.7995 138.781 76.098C138.569 76.3965 138.464 76.794 138.464 77.2844C138.464 77.717 138.536 78.0825 138.679 78.378C138.82 78.678 139.023 78.9171 139.282 79.0984C139.542 79.2751 139.854 79.406 140.222 79.4837C140.584 79.5675 141 79.6086 141.46 79.6086ZM141.326 68.8346C142.086 68.8346 142.732 68.9412 143.262 69.1559C143.79 69.3737 144.218 69.6722 144.547 70.0515C144.874 70.4292 145.114 70.8815 145.26 71.4055C145.412 71.9264 145.482 72.4914 145.482 73.1037V80.3915C145.336 80.4372 145.121 80.4828 144.838 80.5361C144.555 80.5879 144.227 80.6458 143.852 80.7022C143.479 80.7646 143.067 80.8118 142.614 80.8499C142.157 80.8865 141.694 80.9062 141.215 80.9062C140.604 80.9062 140.04 80.8392 139.526 80.7022C139.012 80.5712 138.564 80.358 138.187 80.0686C137.808 79.7761 137.506 79.406 137.293 78.9507C137.076 78.4937 136.967 77.9409 136.967 77.2844C136.967 76.6585 137.089 76.1224 137.328 75.6746C137.561 75.2253 137.899 74.8567 138.333 74.5673C138.766 74.2764 139.28 74.0617 139.874 73.9292C140.468 73.7982 141.117 73.7296 141.818 73.7296C142.029 73.7296 142.246 73.7388 142.479 73.7616C142.709 73.786 142.933 73.8149 143.147 73.8515C143.367 73.8911 143.549 73.9261 143.709 73.9642C143.865 73.9992 143.973 74.0343 144.032 74.0617V73.3489C144.032 72.9468 144.003 72.5554 143.942 72.1761C143.886 71.7969 143.754 71.4542 143.549 71.1466C143.351 70.8419 143.067 70.5952 142.704 70.4079C142.336 70.2236 141.854 70.1322 141.262 70.1322C140.41 70.1322 139.777 70.1886 139.358 70.3074C138.942 70.4292 138.636 70.5252 138.444 70.6013L138.24 69.325C138.496 69.2047 138.887 69.0965 139.414 68.9899C139.944 68.8879 140.583 68.8346 141.326 68.8346Z" fill="#0A3152"/>
<path d="M147.752 69.5073C148.186 69.3885 148.769 69.253 149.497 69.1052C150.227 68.956 151.121 68.8813 152.181 68.8813C153.058 68.8813 153.792 69.0077 154.38 69.2621C154.97 69.5149 155.439 69.8744 155.791 70.345C156.138 70.8156 156.391 71.3761 156.535 72.0325C156.686 72.689 156.764 73.4124 156.764 74.2013V80.6621H155.309V74.6704C155.309 73.851 155.253 73.1565 155.142 72.593C155.029 72.0279 154.842 71.5619 154.581 71.2055C154.322 70.8491 153.978 70.5917 153.553 70.4318C153.128 70.2795 152.595 70.1972 151.956 70.1972C151.27 70.1972 150.678 70.2353 150.18 70.31C149.682 70.3846 149.356 70.4516 149.205 70.514V80.6621H147.752" fill="#0A3152"/>
<path d="M161.921 74.3689C162.448 74.739 162.981 75.17 163.52 75.6528C164.056 76.1387 164.585 76.6672 165.104 77.2307C165.628 77.8018 166.117 78.3791 166.58 78.9761C167.04 79.5762 167.434 80.1367 167.759 80.6621H166.012C165.663 80.0742 165.255 79.5 164.793 78.9334C164.333 78.3699 163.846 77.8338 163.339 77.3358C162.835 76.8377 162.329 76.3823 161.817 75.9726C161.31 75.5614 160.859 75.2507 160.468 75.0451V80.6621H159.02V63.5811L160.468 63.3131V74.081C160.782 73.8145 161.166 73.4505 161.632 72.9905C162.099 72.5321 162.568 72.0675 163.046 71.6045C163.534 71.14 163.985 70.6877 164.414 70.2521C164.841 69.8165 165.202 69.4357 165.489 69.1052H167.265C166.927 69.4616 166.533 69.8591 166.09 70.2962C165.645 70.7318 165.183 71.1872 164.704 71.6609C164.224 72.133 163.75 72.5991 163.284 73.056C162.818 73.5175 162.366 73.9546 161.921 74.3689Z" fill="#0A3152"/>
</g>
<defs>
<linearGradient id="paint0_linear_7129_35233" x1="1.13048" y1="57.3086" x2="21.5652" y2="81.9424" gradientUnits="userSpaceOnUse">
<stop stop-color="#EF3B23"/>
<stop offset="1" stop-color="#8B131E"/>
</linearGradient>
<linearGradient id="paint1_linear_7129_35233" x1="1.38958" y1="72.4829" x2="28.8258" y2="72.4829" gradientUnits="userSpaceOnUse">
<stop stop-color="#B7212F"/>
<stop offset="1" stop-color="#EF3B23"/>
</linearGradient>
<clipPath id="clip0_7129_35233">
<rect width="167.803" height="34.8626" fill="white" transform="translate(0 55)"/>
</clipPath>
</defs>
</svg>
