<svg width="168" height="144" viewBox="0 0 168 144" fill="none" xmlns="http://www.w3.org/2000/svg">
<g clip-path="url(#clip0_7129_35220)">
<path d="M23.9007 52.0098C26.2292 56.0098 28.5778 59.9982 30.8811 64.0134C27.1582 70.5805 23.4891 77.1795 19.6402 83.6744C18.1635 86.1675 16.7271 88.6842 15.2672 91.1857C10.5329 91.2142 5.79869 91.2126 1.06445 91.2058C1.20893 90.8816 1.35173 90.5557 1.52645 90.2466C8.98061 77.4987 16.4633 64.7677 23.9007 52.0098Z" fill="#AE285D"/>
<path d="M126.916 61.8418C129.533 66.7205 132.149 71.5976 134.763 76.478C133.841 76.4964 132.918 76.4494 131.998 76.4813C131.379 75.4061 130.843 74.2856 130.239 73.2036C127.913 73.1348 125.587 73.1818 123.26 73.1768C122.699 74.2906 122.087 75.3759 121.493 76.4696C120.584 76.4612 119.675 76.488 118.768 76.4796C121.445 71.5791 124.132 66.6819 126.916 61.8418ZM124.424 71.0902C126.01 71.112 127.598 71.1087 129.185 71.1221C128.391 69.6437 127.675 68.1233 126.823 66.6768C126.007 68.1401 125.207 69.6101 124.424 71.0902Z" fill="#AE285D"/>
<path d="M136.29 61.7852C140.242 65.2191 144.193 68.6547 148.096 72.1457C148.203 68.9957 148.082 65.8457 148.178 62.6957C149.023 62.7125 149.868 62.726 150.713 62.7411C150.686 67.5929 150.7 72.4464 150.695 77.2983C148.099 75.1395 145.606 72.8597 143.042 70.6606C141.616 69.4409 140.203 68.2078 138.84 66.9192C138.807 70.1096 138.856 73.3016 138.787 76.4919C137.947 76.4952 137.107 76.4734 136.268 76.4801C136.275 71.5812 136.233 66.684 136.29 61.7852Z" fill="#AE285D"/>
<path d="M52.7754 76.4606C55.5054 71.5869 58.1648 66.6746 60.957 61.8379C63.5576 66.7217 66.1734 71.5987 68.8043 76.4657C67.8685 76.4875 66.9344 76.4858 65.9987 76.4673C65.4308 75.377 64.8495 74.2934 64.3069 73.1897C61.9734 73.1594 59.6415 73.1846 57.308 73.1846C56.6999 74.285 56.1505 75.4207 55.4936 76.4942C54.5864 76.469 53.6809 76.4875 52.7754 76.4606ZM58.442 71.1048C60.0363 71.0981 61.6323 71.1199 63.2283 71.1149C62.4253 69.6449 61.7197 68.1228 60.8579 66.6847C60.0464 68.1564 59.2451 69.6297 58.442 71.1048Z" fill="#AE285D"/>
<path d="M91.6262 63.1007C92.9601 62.4438 94.5225 62.3581 95.9657 62.6488C97.2156 62.9125 98.2202 63.8013 98.9829 64.7857C98.3059 65.1285 97.6339 65.4762 96.9686 65.8408C96.0715 64.438 93.9362 63.9911 92.6342 65.0848C91.9437 65.5787 91.9992 66.795 92.7787 67.1713C94.5259 68.134 96.6511 68.3406 98.2001 69.6729C99.7793 71.0118 99.7188 73.6881 98.2555 75.0925C96.6847 76.6852 94.1966 77.0313 92.1084 76.4349C90.3595 75.993 89.0441 74.3853 88.8105 72.6179C89.6556 72.4331 90.509 72.2802 91.3641 72.1475C91.4666 72.9757 91.7808 73.888 92.562 74.3046C93.7985 74.9682 95.591 74.8019 96.4445 73.6041C97.0459 72.7893 96.8678 71.5377 96.0463 70.9413C94.3293 69.7905 92.0496 69.7199 90.509 68.2701C89.6959 67.5779 89.3582 66.4221 89.6354 65.3956C89.8555 64.3489 90.7106 63.5745 91.6262 63.1007Z" fill="#AE285D"/>
<path d="M69.6197 62.7928C70.579 62.6668 71.5483 62.7105 72.5126 62.7206C73.5442 64.2561 74.574 65.7916 75.6072 67.3255C76.6942 65.8101 77.7509 64.2729 78.8227 62.7475C79.8122 62.7155 80.8018 62.6987 81.7913 62.729C80.2222 64.9113 78.643 67.0886 77.0705 69.2692C78.6715 71.6968 80.4187 74.0287 81.9828 76.4815C81.0403 76.4865 80.0978 76.4781 79.1554 76.4697C77.9558 74.7443 76.7647 73.0123 75.5652 71.2869C74.3254 73.019 73.0754 74.7427 71.8507 76.4848C70.8965 76.5033 69.9406 76.4899 68.9863 76.4915C70.6462 74.0589 72.3934 71.6884 74.1187 69.3011C72.6353 67.1205 71.1233 64.96 69.6197 62.7928Z" fill="#AE285D"/>
<path d="M84.1168 62.7299C84.9668 62.7047 85.8152 62.7063 86.6653 62.7248C86.6704 67.3095 86.667 71.8943 86.667 76.479C85.8035 76.4807 84.9416 76.479 84.0781 76.479C84.11 71.8959 84.0949 67.3129 84.1168 62.7299Z" fill="#AE285D"/>
<path d="M108.92 62.7207C111.101 62.8148 113.453 62.42 115.462 63.4885C117.421 64.5368 117.873 67.6465 116.067 69.0543C117.204 69.5029 118.305 70.3479 118.604 71.5928C119.083 73.1199 118.238 74.81 116.902 75.6013C114.468 76.9385 111.6 76.3153 108.957 76.4967C108.875 71.9053 108.927 67.3138 108.92 62.7207ZM111.45 64.6997C111.455 66.0101 111.452 67.3189 111.444 68.6276C112.391 68.5889 113.441 68.6461 114.249 68.0614C115.074 67.3273 115.044 65.8069 114.133 65.1533C113.337 64.6493 112.354 64.7065 111.45 64.6997ZM111.465 70.4269C111.455 71.7625 111.46 73.0997 111.486 74.4353C112.757 74.3681 114.127 74.6033 115.299 73.9733C116.339 73.4626 116.531 71.7927 115.565 71.1106C114.4 70.2068 112.838 70.4554 111.465 70.4269Z" fill="#AE285D"/>
<path d="M153.648 62.7188C154.495 62.7121 155.342 62.7154 156.19 62.7171C156.193 64.5282 156.173 66.3409 156.212 68.1536C158.298 66.3174 160.425 64.5282 162.524 62.707C163.683 62.7138 164.842 62.7188 166.001 62.7154C163.498 64.7684 161.015 66.8432 158.556 68.9466C160.975 71.5002 163.481 73.9681 165.956 76.4679C164.807 76.4562 163.656 76.5469 162.512 76.4142C160.543 74.4049 158.587 72.3838 156.637 70.3578C156.494 70.5459 156.353 70.7341 156.214 70.9222C156.163 72.7753 156.209 74.6266 156.177 76.4797C155.325 76.4746 154.473 76.4965 153.623 76.4914C153.63 71.9017 153.642 67.3102 153.648 62.7188Z" fill="#AE285D"/>
<path d="M23.9023 76.3972C28.6534 76.3955 33.4044 76.3619 38.1555 76.4409C40.9846 81.3734 43.9044 86.2521 46.7083 91.198C41.9573 91.2215 37.2079 91.203 32.4569 91.1997C29.6295 86.2504 26.676 81.3767 23.9023 76.3972Z" fill="#AE285D"/>
</g>
<defs>
<clipPath id="clip0_7129_35220">
<rect width="168" height="144" fill="white"/>
</clipPath>
</defs>
</svg>
