<svg width="168" height="144" viewBox="0 0 168 144" fill="none" xmlns="http://www.w3.org/2000/svg">
<g clip-path="url(#clip0_7129_35344)">
<path d="M26.6147 99.7871H24.0586V109.099H26.6147C29.5815 109.099 31.4986 107.273 31.4986 104.443C31.4986 101.613 29.5815 99.7871 26.6147 99.7871ZM25.8159 101.476H26.5462C28.5774 101.476 29.6956 102.526 29.6956 104.443C29.6956 106.36 28.5774 107.41 26.5462 107.41H25.8159V101.476Z" fill="#AB1F24"/>
<path d="M35.2196 99.7871H33.4395V109.099H35.2196V99.7871Z" fill="#AB1F24"/>
<path d="M36.8848 101.476H39.4865V109.099H41.2438V101.476H43.8227V99.7871H36.8848V101.476Z" fill="#AB1F24"/>
<path d="M50.6928 99.7871L48.5475 103.507L46.3794 99.7871H44.3711L47.6575 105.401V109.099H49.4148V105.401L52.6555 99.7871H50.6928Z" fill="#AB1F24"/>
<path d="M71.1857 104.169C71.6193 103.735 71.8475 103.142 71.8475 102.412C71.8475 100.814 70.7292 99.7871 68.9719 99.7871H65.6855V109.099H69.1545C71.0487 109.099 72.2583 108.003 72.2583 106.314C72.2583 105.379 71.8932 104.625 71.1857 104.169ZM68.9035 101.453C69.7022 101.453 70.0902 101.773 70.0902 102.457C70.0902 103.142 69.7707 103.461 69.0404 103.461H67.4428V101.453H68.9035ZM67.4657 105.105H69.0632C69.9989 105.105 70.501 105.493 70.501 106.269C70.501 107.045 70.0446 107.433 69.086 107.433H67.4657V105.105Z" fill="#AB1F24"/>
<path d="M75.9579 99.7871H74.1777V109.099H75.9579V99.7871Z" fill="#AB1F24"/>
<path d="M84.6523 102.754C84.6523 100.974 83.3514 99.7871 81.3887 99.7871H78.4219V109.099H80.1792V105.698H81.2975L83.3971 109.099H85.4283L83.0776 105.333C84.0818 104.854 84.6523 103.941 84.6523 102.754ZM80.1564 101.476H81.3203C82.3473 101.476 82.8494 101.91 82.8494 102.777C82.8494 103.325 82.6896 104.032 81.3203 104.032H80.1564V101.476Z" fill="#AB1F24"/>
<path d="M88.5086 99.7871H86.7285V109.099H92.3656V107.433H88.5086V99.7871Z" fill="#AB1F24"/>
<path d="M110.942 105.698H113.452V106.885C112.927 107.273 112.243 107.456 111.398 107.456C109.641 107.456 108.363 106.178 108.363 104.397C108.363 102.617 109.572 101.339 111.261 101.339C112.494 101.339 113.087 101.818 113.498 102.275L113.817 102.64L115.073 101.453L114.753 101.111C113.863 100.13 112.722 99.6504 111.261 99.6504C108.614 99.6504 106.537 101.727 106.537 104.397C106.537 107.113 108.614 109.144 111.375 109.144C112.859 109.144 114 108.734 115.004 107.866L115.164 107.729V104.032H110.919V105.698" fill="#AB1F24"/>
<path d="M123.447 102.709C123.447 100.929 122.146 99.7422 120.184 99.7422H117.217V109.054H118.974V105.653H120.092L122.192 109.054H124.223L121.873 105.288C122.877 104.809 123.447 103.873 123.447 102.709ZM118.974 101.408H120.138C121.165 101.408 121.644 101.842 121.644 102.709C121.644 103.257 121.485 103.964 120.138 103.964H118.974V101.408Z" fill="#AB1F24"/>
<path d="M129.749 99.6504C127.079 99.6504 125.002 101.727 125.002 104.397C125.002 107.068 127.079 109.144 129.749 109.144C132.419 109.144 134.519 107.068 134.519 104.397C134.519 101.727 132.419 99.6504 129.749 99.6504ZM129.749 107.456C128.037 107.456 126.782 106.178 126.782 104.397C126.782 102.617 128.037 101.339 129.749 101.339C131.461 101.339 132.716 102.617 132.716 104.397C132.716 106.178 131.461 107.456 129.749 107.456Z" fill="#AB1F24"/>
<path d="M141.388 105.676C141.388 106.863 140.818 107.456 139.722 107.456C138.627 107.456 138.056 106.84 138.056 105.676V99.7422H136.299V105.722C136.299 107.798 137.645 109.122 139.722 109.122C141.799 109.122 143.145 107.776 143.145 105.722V99.7422H141.388V105.676Z" fill="#AB1F24"/>
<path d="M148.419 99.7422H145.475V109.054H147.232V105.722H148.396C150.381 105.722 151.659 104.558 151.659 102.732C151.682 100.929 150.404 99.7422 148.419 99.7422ZM147.255 101.408H148.373C149.4 101.408 149.879 101.842 149.879 102.732C149.879 103.622 149.377 104.033 148.373 104.033H147.255V101.408Z" fill="#AB1F24"/>
<path d="M14.748 109.076H16.4825L17.2585 107.159H20.1797L20.9557 109.076H22.713L18.7419 99.4453L14.748 109.076ZM17.8975 105.584L18.7191 103.553L19.5407 105.584H17.8975Z" fill="#AB1F24"/>
<path d="M52.0176 109.1H53.7521L54.5052 107.183H57.4264L58.2024 109.1H59.9597L55.9886 99.4688L52.0176 109.1ZM55.1442 105.631L55.9658 103.6L56.7874 105.631H55.1442Z" fill="#AB1F24"/>
<path d="M93.4844 109.076H95.2189L95.9948 107.159H98.916L99.692 109.076H101.449L97.4782 99.4453L93.4844 109.076ZM96.611 105.584L97.4326 103.553L98.2542 105.584H96.611Z" fill="#AB1F24"/>
<path d="M130.706 70.9384L117.88 76.8493L103.799 59.2991L119.523 33.6699H130.706V70.9384Z" fill="#AB1F24"/>
<path d="M130.707 92.8239V70.9375L117.881 76.8484L130.707 92.8239Z" fill="#EF7032"/>
<path d="M103.798 59.2991L83.2129 33.6699H119.523L103.798 59.2991Z" fill="#EF7032"/>
<path d="M98.1385 68.5199L103.776 59.3226L83.2129 33.6934V64.3891H83.3498C88.7815 64.3662 93.848 65.8953 98.1385 68.5199Z" fill="#FFD35D"/>
<path d="M83.3498 64.3652H83.2129V92.8244L98.1385 68.5189C93.8252 65.8943 88.7815 64.3652 83.3498 64.3652Z" fill="#AB1F24"/>
<path d="M109.185 80.8677L117.88 76.851L103.799 59.3008L98.1387 68.5209C102.931 71.4421 106.788 75.7327 109.185 80.8677Z" fill="#EF7032"/>
<path d="M98.1385 68.5215L83.2129 92.8498L109.184 80.8682C106.788 75.7333 102.931 71.4427 98.1385 68.5215Z" fill="#D31F26"/>
<path d="M117.881 76.8516L109.186 80.8683C110.874 84.497 111.833 88.5593 111.833 92.8498H130.707L117.881 76.8516Z" fill="#FFD35D"/>
<path d="M83.2129 92.8273H111.809C111.809 88.5596 110.873 84.4972 109.184 80.8457L83.2129 92.8273Z" fill="#AB1F24"/>
<path d="M35.7441 70.9384L48.5702 76.8493L62.6514 59.2991L46.927 33.6699H35.7441V70.9384Z" fill="#AB1F24"/>
<path d="M35.7441 92.8239V70.9375L48.5702 76.8484L35.7441 92.8239Z" fill="#EF7032"/>
<path d="M62.6502 59.2991L83.2129 33.6699H46.9258L62.6502 59.2991Z" fill="#EF7032"/>
<path d="M68.2874 68.5199L62.6504 59.3226L83.2131 33.6934V64.3891H83.0762C77.6673 64.3662 72.6008 65.8953 68.2874 68.5199Z" fill="#D31F26"/>
<path d="M83.0764 64.3652H83.2134V92.8244L68.3105 68.5189C72.6011 65.8943 77.6676 64.3652 83.0764 64.3652Z" fill="#EF7032"/>
<path d="M57.2675 80.8677L48.5723 76.851L62.6535 59.3008L68.2905 68.4981C63.4979 71.4421 59.641 75.7327 57.2675 80.8677Z" fill="#EF7032"/>
<path d="M68.2867 68.5215L83.2124 92.8498L57.2637 80.8682C59.6372 75.7333 63.4941 71.4427 68.2867 68.5215Z" fill="#D31F26"/>
<path d="M48.5702 76.8516L57.2654 80.8683C55.5765 84.497 54.618 88.5593 54.618 92.8498H35.7441L48.5702 76.8516Z" fill="#FFD35D"/>
<path d="M83.2152 92.8273H54.6191C54.6191 88.5596 55.5548 84.4972 57.2665 80.8457L83.2152 92.8273Z" fill="#AB1F24"/>
</g>
<defs>
<clipPath id="clip0_7129_35344">
<rect width="168" height="144" fill="white"/>
</clipPath>
</defs>
</svg>
